<svg xmlns="http://www.w3.org/2000/svg" version="1.1" viewBox="209.3 197.46 333.88 357.07">  <g fill="#9e9e9e">   <path d="m466.93 229.19h-3.3164v-12.785c0-10.418-8.5234-18.941-18.941-18.941s-18.941 8.5234-18.941 18.941l-0.003907 12.785h-99.453v-12.785c0-10.418-8.5234-18.941-18.941-18.941s-18.941 8.5234-18.941 18.941v12.785h-3.3164c-41.676 0-75.773 34.098-75.773 75.773v173.8c0 41.676 34.098 75.773 75.773 75.773h182.33c41.676 0 75.773-34.098 75.773-75.773v-173.8c-0.47266-41.676-34.098-75.773-76.246-75.773zm-181.86 37.887h3.3164v12.785c0 10.418 8.5234 18.941 18.941 18.941s18.941-8.5234 18.941-18.941l0.003906-12.785h99.453v12.785c0 10.418 8.5234 18.941 18.941 18.941s18.941-8.5234 18.941-18.941v-12.785h3.3164c20.836 0 37.887 17.051 37.887 37.887v14.207h-257.63v-14.207c0-20.84 17.047-37.887 37.887-37.887zm181.86 249.58h-181.86c-20.836 0-37.887-17.051-37.887-37.887v-121.71h258.1v121.71c-0.47266 20.836-17.523 37.887-38.359 37.887z"></path>   <path d="m456.04 442.3h-160.07c-10.418 0-18.941 8.5234-18.941 18.941 0 10.418 8.5234 18.941 18.941 18.941h159.6c10.418 0 18.941-8.5234 18.941-18.941 0.003906-10.418-8.0469-18.941-18.469-18.941z"></path>   <path d="m322.96 426.68h106.55c10.418 0 18.941-8.5234 18.941-18.941s-8.5234-18.941-18.941-18.941l-106.55-0.003907c-10.418 0-18.941 8.5234-18.941 18.941-0.003906 10.418 8.0469 18.945 18.941 18.945z"></path>  </g> </svg>