<svg width="16" height="16" viewBox="0 0 16 16" fill="none" xmlns="http://www.w3.org/2000/svg">
<path fill-rule="evenodd" clip-rule="evenodd" d="M0 8.00011C0 11.9557 2.88889 15.2447 6.66667 15.9113L6.70909 15.8774C6.69489 15.8747 6.6807 15.8719 6.6665 15.869V10.2245H4.6665V8.00224H6.6665V6.22444C6.6665 4.22441 7.95539 3.11328 9.77762 3.11328C10.3554 3.11328 10.9776 3.20217 11.5554 3.29106V5.33554H10.5332C9.55539 5.33554 9.33317 5.82443 9.33317 6.44666V8.00224H11.4665L11.1109 10.2245H9.33317V15.869C9.31906 15.8718 9.30496 15.8746 9.29085 15.8773L9.33333 15.9113C13.1111 15.2447 16 11.9557 16 8.00011C16 3.60005 12.4 0 8 0C3.6 0 0 3.60005 0 8.00011Z" fill="#ffc104"/>
</svg>
