<svg width="16" height="19" viewBox="0 0 16 19" fill="none" xmlns="http://www.w3.org/2000/svg">
<path d="M12.4599 4.84615C12.4599 7.52264 10.2902 9.69229 7.61373 9.69229C4.93723 9.69229 2.76758 7.52264 2.76758 4.84615C2.76758 2.16965 4.93723 0 7.61373 0C10.2902 0 12.4599 2.16965 12.4599 4.84615Z" fill="#9e9e9e"/>
<path d="M0.690148 18.0021C0.690192 18.0021 0.690239 18.0021 0.690286 18.0021H14.5363C14.7465 18.0022 14.9452 17.907 15.0767 17.7432C15.2082 17.5793 15.2583 17.3646 15.2127 17.1595L14.3127 13.0971C14.1449 12.3261 13.7173 11.6361 13.1015 11.1427C12.4857 10.6495 11.7192 10.3824 10.9302 10.3868H4.29628C3.50769 10.3832 2.74168 10.6506 2.12647 11.144C1.51127 11.6374 1.08414 12.3272 0.91648 13.0979L0.0164814 17.1596C-0.0289497 17.3642 0.0206542 17.5784 0.151545 17.7422C0.282419 17.9058 0.480499 18.0015 0.690007 18.0021C0.690055 18.0021 0.690103 18.0021 0.690148 18.0021Z" fill="#9e9e9e"/>
</svg>
