<svg width="14" height="20" viewBox="0 0 14 20" fill="none" xmlns="http://www.w3.org/2000/svg">
<path d="M11.111 0H2.22231C1.63283 0 1.06772 0.234193 0.650863 0.650863C0.234193 1.06772 0 1.63283 0 2.22231V17.7777C0 18.3672 0.234193 18.9323 0.650863 19.3491C1.06772 19.7658 1.63283 20 2.22231 20H11.1114H11.1113C11.7007 20 12.2658 19.7658 12.6827 19.3491C13.0994 18.9323 13.3336 18.3672 13.3336 17.7777V2.22231C13.3336 1.63283 13.0994 1.06772 12.6827 0.650863C12.2658 0.234193 11.7007 0 11.1113 0H11.111ZM7.7776 17.7778H5.55548C5.15853 17.7778 4.79171 17.5661 4.59324 17.2224C4.39476 16.8786 4.39476 16.4549 4.59324 16.1111C4.79171 15.7673 5.15852 15.5557 5.55548 15.5557H7.77779H7.7776C8.17455 15.5557 8.54137 15.7674 8.73985 16.1111C8.93833 16.4549 8.93833 16.8786 8.73985 17.2224C8.54137 17.5661 8.17456 17.7778 7.7776 17.7778H7.7776Z" fill="#9e9e9e"/>
</svg>
