<svg width="16" height="16" viewBox="0 0 16 16" fill="none" xmlns="http://www.w3.org/2000/svg">
<path fill-rule="evenodd" clip-rule="evenodd" d="M3.49601 0.0191964C3.68588 0.00344551 4.66268 0 8.00261 0H10.6064C12.4829 0.0032603 12.5897 0.0187254 12.9462 0.0703482L12.9668 0.0733401C13.7381 0.184581 14.3854 0.492215 14.9147 0.99772C15.2112 1.28308 15.4155 1.56217 15.5995 1.93588C15.8237 2.39241 15.9338 2.82433 15.9843 3.46667C15.9951 3.60449 16 5.7978 16 7.99259C16 10.187 15.9954 12.3844 15.9846 12.5222C15.9348 13.1543 15.8246 13.5899 15.6075 14.0379C15.1755 14.9288 14.3818 15.5785 13.4233 15.8258C13.0756 15.9157 12.7612 15.9579 12.2198 15.9833C12.0266 15.9932 10.0061 15.9956 7.98551 15.9956C5.96496 15.9956 3.94565 15.9895 3.74753 15.9809C3.27993 15.9587 2.91569 15.912 2.58591 15.8271C1.63347 15.5809 0.825007 14.9214 0.401702 14.0428C0.180205 13.5838 0.0756097 13.1642 0.0202355 12.4972C0.00423852 12.3077 0.000546906 11.3319 0.000546906 7.99468C0.000546906 7.5858 0.000384168 7.21476 0.000236236 6.87747C-2.26162e-05 6.28729 -0.000236133 5.80047 0.000546906 5.39517C0.0036924 3.51659 0.01897 3.41119 0.0709365 3.05268C0.0718272 3.04654 0.0727286 3.04032 0.0736409 3.03401C0.185005 2.26345 0.492639 1.6152 1.00024 1.08829C1.27895 0.799357 1.56136 0.593242 1.91945 0.41543C2.3841 0.184088 2.8106 0.0761703 3.49601 0.0191964ZM5.56339 2.12748C6.19343 2.09881 6.39474 2.0918 7.99887 2.0918H7.99703C9.60165 2.0918 9.80223 2.09881 10.4323 2.12748C11.0611 2.15628 11.4905 2.25583 11.8671 2.40189C12.2559 2.55263 12.5845 2.75444 12.913 3.083C13.2416 3.4113 13.4434 3.74084 13.5947 4.12932C13.7399 4.50488 13.8396 4.93409 13.8692 5.5629C13.8975 6.19293 13.9048 6.39425 13.9048 7.99838C13.9048 9.60251 13.8975 9.80333 13.8692 10.4334C13.8396 11.0619 13.7399 11.4913 13.5947 11.8669C13.4434 12.2553 13.2416 12.5848 12.913 12.9131C12.5848 13.2417 12.2558 13.444 11.8674 13.5949C11.4916 13.7409 11.0619 13.8405 10.4331 13.8693C9.80309 13.8979 9.60239 13.905 7.99813 13.905C6.39413 13.905 6.19293 13.8979 5.5629 13.8693C4.93422 13.8405 4.50488 13.7409 4.12908 13.5949C3.74084 13.444 3.4113 13.2417 3.08312 12.9131C2.75469 12.5848 2.55288 12.2553 2.40189 11.8668C2.25595 11.4913 2.1564 11.062 2.12748 10.4332C2.09893 9.80321 2.0918 9.60251 2.0918 7.99838C2.0918 6.39425 2.09918 6.19281 2.12736 5.56278C2.15566 4.93422 2.25534 4.50488 2.40177 4.1292C2.55313 3.74084 2.75493 3.4113 3.08349 3.083C3.41179 2.75456 3.74133 2.55276 4.12981 2.40189C4.50537 2.25583 4.93459 2.15628 5.56339 2.12748ZM7.80201 3.15615C7.68257 3.1561 7.57189 3.15605 7.469 3.15621V3.15474C6.36816 3.15597 6.157 3.16335 5.61212 3.18796C5.03623 3.21442 4.72355 3.3104 4.51534 3.39161C4.2397 3.49892 4.04281 3.62689 3.83608 3.83362C3.62935 4.04035 3.50113 4.23724 3.39408 4.51288C3.31323 4.72109 3.217 5.03364 3.19067 5.60954C3.16236 6.23219 3.1567 6.41824 3.1567 7.99555C3.1567 9.57285 3.16236 9.75989 3.19067 10.3825C3.21688 10.9584 3.31323 11.271 3.39408 11.479C3.50138 11.7547 3.62935 11.9511 3.83608 12.1578C4.04281 12.3646 4.2397 12.4925 4.51534 12.5996C4.72367 12.6805 5.03623 12.7767 5.61212 12.8033C6.23477 12.8316 6.42169 12.8377 7.99887 12.8377C9.57593 12.8377 9.76297 12.8316 10.3856 12.8033C10.9615 12.7769 11.2743 12.6809 11.4823 12.5997C11.758 12.4927 11.9543 12.3647 12.161 12.158C12.3678 11.9514 12.496 11.7551 12.6031 11.4794C12.6839 11.2715 12.7801 10.9589 12.8065 10.383C12.8348 9.76039 12.8409 9.57334 12.8409 7.99703C12.8409 6.42071 12.8348 6.23366 12.8065 5.61101C12.7802 5.03512 12.6839 4.72256 12.6031 4.5146C12.4957 4.23896 12.3678 4.04208 12.161 3.83535C11.9544 3.62862 11.7579 3.50064 11.4823 3.39358C11.2741 3.31274 10.9615 3.21651 10.3856 3.19018C9.76285 3.16187 9.57593 3.15621 7.99887 3.15621C7.93071 3.15621 7.86513 3.15618 7.80201 3.15615ZM10.443 4.84549C10.443 4.45406 10.7604 4.13695 11.1518 4.13695V4.1367C11.5431 4.1367 11.8605 4.45418 11.8605 4.84549C11.8605 5.23681 11.5431 5.55428 11.1518 5.55428C10.7604 5.55428 10.443 5.23681 10.443 4.84549ZM4.9656 7.99838C4.9656 6.32329 6.32367 4.96517 7.99875 4.9651C9.67388 4.9651 11.0317 6.32325 11.0317 7.99838C11.0317 9.67351 9.674 11.031 7.99887 11.031C6.32374 11.031 4.9656 9.67351 4.9656 7.99838ZM9.96773 7.99838C9.96773 6.91095 9.08617 6.02952 7.99887 6.02952C6.91144 6.02952 6.03001 6.91095 6.03001 7.99838C6.03001 9.08568 6.91144 9.96724 7.99887 9.96724C9.08617 9.96724 9.96773 9.08568 9.96773 7.99838Z" fill="#ffc104"/>
</svg>
