<svg width="16" height="16" viewBox="0 0 16 16" fill="none" xmlns="http://www.w3.org/2000/svg">
<path d="M8.00261 0C4.66268 0 3.68588 0.00344551 3.49601 0.0191964C2.8106 0.0761703 2.3841 0.184088 1.91945 0.41543C1.56136 0.593242 1.27895 0.799357 1.00024 1.08829C0.492639 1.6152 0.185005 2.26345 0.0736409 3.03401C0.0194972 3.4081 0.0037463 3.48439 0.000546906 5.39517C-0.000683632 6.0321 0.000546906 6.87034 0.000546906 7.99468C0.000546906 11.3319 0.00423852 12.3077 0.0202355 12.4972C0.0756097 13.1642 0.180205 13.5838 0.401702 14.0428C0.825007 14.9214 1.63347 15.5809 2.58591 15.8271C2.91569 15.912 3.27993 15.9587 3.74753 15.9809C3.94565 15.9895 5.96496 15.9956 7.98551 15.9956C10.006 15.9956 12.0266 15.9932 12.2198 15.9833C12.7612 15.9579 13.0756 15.9157 13.4233 15.8258C14.3818 15.5785 15.1755 14.9288 15.6075 14.0379C15.8246 13.5899 15.9348 13.1543 15.9846 12.5222C15.9954 12.3844 16 10.187 16 7.99259C16 5.7978 15.9951 3.60449 15.9843 3.46667C15.9338 2.82433 15.8237 2.39241 15.5995 1.93588C15.4155 1.56217 15.2112 1.28308 14.9147 0.99772C14.3854 0.492215 13.7381 0.184581 12.9668 0.0733401C12.5931 0.0193194 12.5187 0.00332245 10.6064 0H8.00261Z" fill="url(#paint0_radial_1115_598)"/>
<path d="M8.00261 0C4.66268 0 3.68588 0.00344551 3.49601 0.0191964C2.8106 0.0761703 2.3841 0.184088 1.91945 0.41543C1.56136 0.593242 1.27895 0.799357 1.00024 1.08829C0.492639 1.6152 0.185005 2.26345 0.0736409 3.03401C0.0194972 3.4081 0.0037463 3.48439 0.000546906 5.39517C-0.000683632 6.0321 0.000546906 6.87034 0.000546906 7.99468C0.000546906 11.3319 0.00423852 12.3077 0.0202355 12.4972C0.0756097 13.1642 0.180205 13.5838 0.401702 14.0428C0.825007 14.9214 1.63347 15.5809 2.58591 15.8271C2.91569 15.912 3.27993 15.9587 3.74753 15.9809C3.94565 15.9895 5.96496 15.9956 7.98551 15.9956C10.006 15.9956 12.0266 15.9932 12.2198 15.9833C12.7612 15.9579 13.0756 15.9157 13.4233 15.8258C14.3818 15.5785 15.1755 14.9288 15.6075 14.0379C15.8246 13.5899 15.9348 13.1543 15.9846 12.5222C15.9954 12.3844 16 10.187 16 7.99259C16 5.7978 15.9951 3.60449 15.9843 3.46667C15.9338 2.82433 15.8237 2.39241 15.5995 1.93588C15.4155 1.56217 15.2112 1.28308 14.9147 0.99772C14.3854 0.492215 13.7381 0.184581 12.9668 0.0733401C12.5931 0.0193194 12.5187 0.00332245 10.6064 0H8.00261Z" fill="url(#paint1_radial_1115_598)"/>
<path d="M7.99887 2.0918C6.39474 2.0918 6.19343 2.09881 5.56339 2.12748C4.93459 2.15628 4.50537 2.25583 4.12981 2.40189C3.74133 2.55276 3.41179 2.75456 3.08349 3.083C2.75493 3.4113 2.55313 3.74084 2.40177 4.1292C2.25534 4.50488 2.15566 4.93422 2.12736 5.56278C2.09918 6.19281 2.0918 6.39425 2.0918 7.99838C2.0918 9.60251 2.09893 9.80321 2.12748 10.4332C2.1564 11.062 2.25595 11.4913 2.40189 11.8668C2.55288 12.2553 2.75469 12.5848 3.08312 12.9131C3.4113 13.2417 3.74084 13.444 4.12908 13.5949C4.50488 13.7409 4.93422 13.8405 5.5629 13.8693C6.19293 13.8979 6.39413 13.905 7.99813 13.905C9.60239 13.905 9.80309 13.8979 10.4331 13.8693C11.0619 13.8405 11.4916 13.7409 11.8674 13.5949C12.2558 13.444 12.5848 13.2417 12.913 12.9131C13.2416 12.5848 13.4434 12.2553 13.5947 11.8669C13.7399 11.4913 13.8396 11.0619 13.8692 10.4334C13.8975 9.80333 13.9048 9.60251 13.9048 7.99838C13.9048 6.39425 13.8975 6.19293 13.8692 5.5629C13.8396 4.93409 13.7399 4.50488 13.5947 4.12932C13.4434 3.74084 13.2416 3.4113 12.913 3.083C12.5845 2.75444 12.2559 2.55263 11.8671 2.40189C11.4905 2.25583 11.0611 2.15628 10.4323 2.12748C9.80222 2.09881 9.60165 2.0918 7.99703 2.0918H7.99887ZM7.469 3.15621C7.62626 3.15597 7.80174 3.15621 7.99887 3.15621C9.57593 3.15621 9.76285 3.16187 10.3856 3.19018C10.9615 3.21651 11.2741 3.31274 11.4823 3.39358C11.7579 3.50064 11.9544 3.62862 12.161 3.83535C12.3678 4.04208 12.4957 4.23896 12.6031 4.5146C12.6839 4.72256 12.7802 5.03512 12.8065 5.61101C12.8348 6.23366 12.8409 6.42071 12.8409 7.99703C12.8409 9.57334 12.8348 9.76039 12.8065 10.383C12.7801 10.9589 12.6839 11.2715 12.6031 11.4794C12.496 11.7551 12.3678 11.9514 12.161 12.158C11.9543 12.3647 11.758 12.4927 11.4823 12.5997C11.2743 12.6809 10.9615 12.7769 10.3856 12.8033C9.76297 12.8316 9.57593 12.8377 7.99887 12.8377C6.42169 12.8377 6.23477 12.8316 5.61212 12.8033C5.03623 12.7767 4.72367 12.6805 4.51534 12.5996C4.2397 12.4925 4.04281 12.3646 3.83608 12.1578C3.62935 11.9511 3.50138 11.7547 3.39408 11.479C3.31323 11.271 3.21688 10.9584 3.19067 10.3825C3.16236 9.75989 3.1567 9.57285 3.1567 7.99555C3.1567 6.41824 3.16236 6.23219 3.19067 5.60954C3.217 5.03364 3.31323 4.72109 3.39408 4.51288C3.50113 4.23724 3.62935 4.04035 3.83608 3.83362C4.04281 3.62689 4.2397 3.49892 4.51534 3.39161C4.72355 3.3104 5.03623 3.21442 5.61212 3.18796C6.157 3.16335 6.36816 3.15597 7.469 3.15474V3.15621ZM11.1518 4.13695C10.7604 4.13695 10.443 4.45406 10.443 4.84549C10.443 5.23681 10.7604 5.55428 11.1518 5.55428C11.5431 5.55428 11.8605 5.23681 11.8605 4.84549C11.8605 4.45418 11.5431 4.1367 11.1518 4.1367V4.13695ZM7.99887 4.9651C6.32374 4.9651 4.9656 6.32325 4.9656 7.99838C4.9656 9.67351 6.32374 11.031 7.99887 11.031C9.674 11.031 11.0317 9.67351 11.0317 7.99838C11.0317 6.32325 9.67388 4.9651 7.99875 4.9651H7.99887ZM7.99887 6.02952C9.08617 6.02952 9.96773 6.91095 9.96773 7.99838C9.96773 9.08568 9.08617 9.96724 7.99887 9.96724C6.91144 9.96724 6.03001 9.08568 6.03001 7.99838C6.03001 6.91095 6.91144 6.02952 7.99887 6.02952Z" fill="white"/>
<defs>
<radialGradient id="paint0_radial_1115_598" cx="0" cy="0" r="1" gradientUnits="userSpaceOnUse" gradientTransform="translate(4.25002 17.2276) rotate(-90) scale(15.8529 14.7484)">
<stop stop-color="#FFDD55"/>
<stop offset="0.1" stop-color="#FFDD55"/>
<stop offset="0.5" stop-color="#FF543E"/>
<stop offset="1" stop-color="#C837AB"/>
</radialGradient>
<radialGradient id="paint1_radial_1115_598" cx="0" cy="0" r="1" gradientUnits="userSpaceOnUse" gradientTransform="translate(-2.68008 1.1523) rotate(78.6776) scale(7.08637 29.2177)">
<stop stop-color="#3771C8"/>
<stop offset="0.128" stop-color="#3771C8"/>
<stop offset="1" stop-color="#6600FF" stop-opacity="0"/>
</radialGradient>
</defs>
</svg>
