<svg xmlns="http://www.w3.org/2000/svg" version="1.1" viewBox="249.58 201.69 252.86 348.62">  <path d="m376.02 201.69c-33.512 0.019531-65.648 13.332-89.355 37.02-23.703 23.688-37.043 55.812-37.086 89.324 0 69.602 118.29 216.71 118.29 216.71 4.5352 7.4219 11.949 7.4219 16.52 0 0 0 118.05-146.93 118.05-216.71h-0.003906c-0.003907-33.516-13.328-65.66-37.035-89.355-23.707-23.695-55.859-37-89.379-36.988zm0 180.95c-19.043-0.023438-37.293-7.6094-50.746-21.086-13.453-13.477-21.004-31.746-20.996-50.785 0.011718-19.043 7.582-37.301 21.047-50.766 13.465-13.465 31.727-21.031 50.77-21.035 19.043-0.007813 37.309 7.5469 50.781 21 13.477 13.457 21.059 31.711 21.078 50.754 0.019531 19.082-7.5547 37.387-21.051 50.879-13.492 13.492-31.801 21.062-50.883 21.039zm40.738-71.836c0 10.785-4.2852 21.129-11.91 28.754s-17.969 11.91-28.754 11.91c-10.781 0-21.125-4.2852-28.75-11.91s-11.91-17.969-11.91-28.754c0-10.785 4.2852-21.125 11.91-28.754 7.625-7.625 17.969-11.906 28.754-11.906 10.781 0 21.125 4.2812 28.75 11.906 7.625 7.6289 11.91 17.969 11.91 28.754z" fill="#9f9f9f"></path> </svg>