<svg xmlns="http://www.w3.org/2000/svg" version="1.1" viewBox="246.08 291.6 259.85 168.81">  <path d="m334.12 460.41h83.762c12.105 0 21.914-9.8164 21.914-21.922 0-0.37891-0.003906-0.76172-0.027344-1.1367v-0.039062l-0.003906-0.023438v-0.085937l-0.003906-0.015625c-2.1602-33.23-30.008-59.75-63.754-59.75-33.75 0-61.602 26.52-63.762 59.75v0.0625l-0.003906 0.015625v0.085937c-0.023438 0.375-0.035157 0.75391-0.035157 1.1367 0 12.105 9.8125 21.922 21.914 21.922zm-28.594-15.227h-41.48v-0.003907c-9.9219 0-17.965-8.0391-17.965-17.961 0-0.3125 0.011719-0.62109 0.027344-0.93359v-0.078125l0.003906-0.015625v-0.035156c1.7734-27.23 24.594-48.965 52.254-48.965 11.59 0 22.328 3.8164 31.027 10.246-13.988 12.109-23.285 29.555-24.578 49.23l-0.003906 0.0625-0.015625 0.27344c-0.023437 0.49609-0.039063 0.99609-0.039063 1.4922 0 2.3047 0.26953 4.543 0.77344 6.6953zm-7.1602-138.36c-17.277 0-31.289 14.012-31.289 31.289 0 17.285 14.012 31.289 31.289 31.289 17.285 0 31.297-14.008 31.297-31.289 0-17.277-14.012-31.289-31.297-31.289zm148.12 138.36h41.48v-0.003907c9.918 0 17.961-8.0391 17.961-17.961 0-0.3125-0.003906-0.62109-0.023437-0.93359v-0.03125l-0.003906-0.015625v-0.082031c-1.7734-27.23-24.594-48.965-52.262-48.965-11.586 0-22.324 3.8164-31.023 10.246 13.984 12.109 23.285 29.555 24.578 49.23l0.003906 0.0625 0.011719 0.27344c0.027344 0.49609 0.039063 0.99609 0.039063 1.4922 0 2.3047-0.26172 4.543-0.76562 6.6953zm7.1523-138.36c17.285 0 31.289 14.012 31.289 31.289 0 17.285-14.008 31.289-31.289 31.289-17.277 0-31.289-14.008-31.289-31.289 0-17.277 14.012-31.289 31.289-31.289zm-77.633-15.227c21.082 0 38.176 17.094 38.176 38.176 0 21.086-17.094 38.18-38.176 38.18-21.086 0-38.18-17.094-38.18-38.18 0-21.082 17.094-38.176 38.18-38.176z" fill="#9e9e9e" fill-rule="evenodd"></path> </svg>