<svg width="140" height="100" viewBox="0 0 140 100" fill="none" xmlns="http://www.w3.org/2000/svg">
<path opacity="0.4" d="M50 35H40.073C44.7165 21.5525 48.6815 15.1125 61.875 9.6145C64.077 8.6965 65.3225 6.353 64.8535 4.014C64.385 1.6795 62.334 0 59.951 0C59.946 0 59.946 0 59.941 0C32.4165 0.049 16.606 11.084 5.395 38.0565C1.8165 46.5285 0 55.5955 0 65C0 79.463 4.375 87.339 11.045 97.705C11.963 99.1355 13.55 100 15.249 100H50C58.2715 100 65 93.2715 65 85V50C65 41.7285 58.2715 35 50 35ZM125 35H115.073C119.717 21.5525 123.682 15.1125 136.875 9.6145C139.077 8.6965 140.322 6.353 139.854 4.014C139.385 1.6795 137.334 0 134.951 0C134.946 0 134.946 0 134.941 0C107.417 0.049 91.606 11.084 80.395 38.0565C76.8165 46.5285 75 55.5955 75 65C75 79.463 79.375 87.339 86.045 97.705C86.963 99.1355 88.55 100 90.249 100H125C133.271 100 140 93.2715 140 85V50C140 41.7285 133.271 35 125 35Z" fill="url(#paint0_linear)"/>
<defs>
<linearGradient id="paint0_linear" x1="140" y1="100" x2="45.4054" y2="-32.4324" gradientUnits="userSpaceOnUse">
<stop stop-color="#EDCE4D"/>
<stop offset="1" stop-color="#F09819"/>
</linearGradient>
</defs>
</svg>
