<svg xmlns="http://www.w3.org/2000/svg" width="100" height="100.816" viewBox="0 0 100 100.816" class="process-icon">
                                    <g id="how-it-work-icon03" transform="translate(-177.403 -192.402)">
                                        <g id="Group_414" data-name="Group 414" transform="translate(184.197 228.304)">
                                            <rect id="Rectangle_91" data-name="Rectangle 91" width="70.744" height="48.892" fill="#002e5b"></rect>
                                            <rect id="Rectangle_92" data-name="Rectangle 92" width="1.935" height="1.935" transform="translate(54.59 1.727)" fill="#fff"></rect>
                                            <rect id="Rectangle_93" data-name="Rectangle 93" width="1.935" height="1.935" transform="translate(58.334 1.727)" fill="#fff"></rect>
                                            <rect id="Rectangle_94" data-name="Rectangle 94" width="1.935" height="1.935" transform="translate(61.964 1.727)" fill="#fff"></rect>
                                            <rect id="Rectangle_95" data-name="Rectangle 95" width="69.124" height="0.789" transform="translate(0.81 0.473)" fill="#c1c1c1"></rect>
                                            <rect id="Rectangle_96" data-name="Rectangle 96" width="69.124" height="42.852" transform="translate(0.81 5.024)" fill="#fff"></rect>
                                            <rect id="Rectangle_97" data-name="Rectangle 97" width="65" height="35.768" transform="translate(2.809 8.713)" fill="#a0a0a0"></rect>
                                            <path id="Path_3107" data-name="Path 3107" d="M191.879,235l-.481.481.873.873-.873.873.481.481,1.354-1.354Z" transform="translate(-184.197 -224.954)" fill="#fff"></path>
                                            <path id="Path_3108" data-name="Path 3108" d="M193.776,238.319l-.481.481.873.873-.873.873.481.481,1.354-1.354Z" transform="translate(-184.197 -224.954)" fill="#fff"></path>
                                            <path id="Path_3109" data-name="Path 3109" d="M191.879,244.959l-.481.481.873.873-.873.873.481.481,1.354-1.354Z" transform="translate(-184.197 -224.954)" fill="#fff"></path>
                                            <path id="Path_3110" data-name="Path 3110" d="M194.724,241.639l-.481.481.873.873-.873.873.481.481,1.354-1.354Z" transform="translate(-184.197 -224.954)" fill="#fff"></path>
                                            <path id="Path_3111" data-name="Path 3111" d="M194.724,248.278l-.481.481.873.873-.873.873.481.481,1.354-1.354Z" transform="translate(-184.197 -224.954)" fill="#fff"></path>
                                            <rect id="Rectangle_98" data-name="Rectangle 98" width="11.097" height="1.146" transform="translate(11.714 10.826)" fill="#fff"></rect>
                                            <rect id="Rectangle_99" data-name="Rectangle 99" width="11.097" height="1.146" transform="translate(31.148 10.826)" fill="#fff"></rect>
                                            <rect id="Rectangle_100" data-name="Rectangle 100" width="20.455" height="1.146" transform="translate(12.592 14.146)" fill="#fff"></rect>
                                            <rect id="Rectangle_101" data-name="Rectangle 101" width="20.455" height="1.146" transform="translate(34.15 14.146)" fill="#fff"></rect>
                                            <rect id="Rectangle_102" data-name="Rectangle 102" width="19.641" height="1.146" transform="translate(9.809 20.785)" fill="#fff"></rect>
                                            <rect id="Rectangle_103" data-name="Rectangle 103" width="31.17" height="1.146" transform="translate(13.208 17.465)" fill="#fff"></rect>
                                            <rect id="Rectangle_104" data-name="Rectangle 104" width="20.455" height="1.146" transform="translate(12.592 24.105)" fill="#fff"></rect>
                                            <rect id="Rectangle_105" data-name="Rectangle 105" width="5.035" height="1.146" transform="translate(24.179 10.826)" fill="#fff"></rect>
                                            <rect id="Rectangle_106" data-name="Rectangle 106" width="5.035" height="1.146" transform="translate(43.986 10.826)" fill="#fff"></rect>
                                            <rect id="Rectangle_107" data-name="Rectangle 107" width="5.035" height="1.146" transform="translate(31.148 20.785)" fill="#fff"></rect>
                                            <path id="Path_3112" data-name="Path 3112" d="M191.879,251.634l-.481.481.873.873-.873.873.481.481,1.354-1.354Z" transform="translate(-184.197 -224.954)" fill="#fff"></path>
                                            <rect id="Rectangle_108" data-name="Rectangle 108" width="11.097" height="1.146" transform="translate(11.714 27.46)" fill="#fff"></rect>
                                            <rect id="Rectangle_109" data-name="Rectangle 109" width="11.097" height="1.146" transform="translate(31.148 27.46)" fill="#fff"></rect>
                                            <rect id="Rectangle_110" data-name="Rectangle 110" width="5.035" height="1.146" transform="translate(24.179 27.46)" fill="#fff"></rect>
                                            <rect id="Rectangle_111" data-name="Rectangle 111" width="5.035" height="1.146" transform="translate(43.986 27.46)" fill="#fff"></rect>
                                            <path id="Path_3113" data-name="Path 3113" d="M191.879,255.443l-.481.481.873.873-.873.873.481.481,1.354-1.354Z" transform="translate(-184.197 -224.954)" fill="#fff"></path>
                                            <path id="Path_3114" data-name="Path 3114" d="M193.776,258.762l-.481.481.873.873-.873.873.481.481,1.354-1.354Z" transform="translate(-184.197 -224.954)" fill="#fff"></path>
                                            <path id="Path_3115" data-name="Path 3115" d="M191.879,265.4l-.481.481.873.873-.873.873.481.481,1.354-1.353Z" transform="translate(-184.197 -224.954)" fill="#fff"></path>
                                            <path id="Path_3116" data-name="Path 3116" d="M194.724,262.082l-.481.481.873.873-.873.873.481.481,1.354-1.353Z" transform="translate(-184.197 -224.954)" fill="#fff"></path>
                                            <rect id="Rectangle_112" data-name="Rectangle 112" width="11.097" height="1.146" transform="translate(11.714 31.269)" fill="#fff"></rect>
                                            <rect id="Rectangle_113" data-name="Rectangle 113" width="11.097" height="1.146" transform="translate(31.148 31.269)" fill="#fff"></rect>
                                            <rect id="Rectangle_114" data-name="Rectangle 114" width="20.455" height="1.146" transform="translate(12.592 34.589)" fill="#fff"></rect>
                                            <rect id="Rectangle_115" data-name="Rectangle 115" width="20.455" height="1.146" transform="translate(34.15 34.589)" fill="#fff"></rect>
                                            <rect id="Rectangle_116" data-name="Rectangle 116" width="19.641" height="1.146" transform="translate(9.809 41.228)" fill="#fff"></rect>
                                            <rect id="Rectangle_117" data-name="Rectangle 117" width="31.17" height="1.146" transform="translate(13.208 37.909)" fill="#fff"></rect>
                                            <rect id="Rectangle_118" data-name="Rectangle 118" width="5.035" height="1.146" transform="translate(24.179 31.269)" fill="#fff"></rect>
                                            <rect id="Rectangle_119" data-name="Rectangle 119" width="5.035" height="1.146" transform="translate(55.866 34.589)" fill="#fff"></rect>
                                            <rect id="Rectangle_120" data-name="Rectangle 120" width="5.035" height="1.146" transform="translate(31.148 41.228)" fill="#fff"></rect>
                                        </g>
                                        <g id="Group_415" data-name="Group 415" transform="translate(177.403 192.402)">
                                            <path id="Path_3117" data-name="Path 3117" d="M210.611,204.368a12.638,12.638,0,0,0-25.24,0,8.682,8.682,0,0,0-7.968,8.649v.176a8.685,8.685,0,0,0,8.686,8.685h23.8a8.685,8.685,0,0,0,8.686-8.685v-.176A8.682,8.682,0,0,0,210.611,204.368Z" transform="translate(-177.403 -192.402)" fill="#767676"></path>
                                            <path id="Path_3118" data-name="Path 3118" d="M178.867,213.422l.178,1.754,1.821-.185a3.926,3.926,0,0,0,.621,1.151l-1.158,1.42,1.366,1.114,1.158-1.42a3.909,3.909,0,0,0,1.253.377l.184,1.822,1.754-.178-.185-1.822a3.9,3.9,0,0,0,1.151-.621l1.42,1.158,1.114-1.366-1.42-1.158a3.9,3.9,0,0,0,.377-1.252l1.822-.185-.178-1.753-1.822.184a3.9,3.9,0,0,0-.621-1.151l1.158-1.42-1.365-1.113-1.158,1.419a3.916,3.916,0,0,0-1.253-.377L184.9,208l-1.753.178.185,1.822a3.919,3.919,0,0,0-1.152.621l-1.419-1.158-1.114,1.366,1.419,1.158a3.936,3.936,0,0,0-.377,1.252Zm5.094-1.534a1.947,1.947,0,0,1,2.562,2.09,1.925,1.925,0,0,1-1.295,1.587,1.945,1.945,0,1,1-1.267-3.677Z" transform="translate(-177.403 -192.402)" fill="#fff"></path>
                                            <path id="Path_3119" data-name="Path 3119" d="M201.071,211.054l-.285,2.323,2.414.3a5.177,5.177,0,0,0,.465,1.674l-1.918,1.5,1.441,1.845,1.918-1.5a5.2,5.2,0,0,0,1.511.857l-.3,2.414,2.323.286.3-2.414a5.2,5.2,0,0,0,1.674-.465l1.5,1.918,1.845-1.442-1.5-1.918a5.2,5.2,0,0,0,.857-1.511l2.414.3.286-2.324-2.414-.3a5.184,5.184,0,0,0-.466-1.674l1.918-1.5-1.441-1.844-1.918,1.5a5.177,5.177,0,0,0-1.511-.857l.3-2.415-2.324-.285-.3,2.414a5.184,5.184,0,0,0-1.674.465l-1.5-1.918-1.845,1.441,1.5,1.918a5.205,5.205,0,0,0-.857,1.512Zm7.051-.487a2.586,2.586,0,0,1,2.7,3.46,2.559,2.559,0,0,1-2.145,1.675,2.586,2.586,0,0,1-2.7-3.46A2.559,2.559,0,0,1,208.122,210.567Z" transform="translate(-177.403 -192.402)" fill="#fff"></path>
                                            <path id="Path_3120" data-name="Path 3120" d="M200.465,197.44l-.433,1.066,1.107.451a2.548,2.548,0,0,0,.006.854l-1.1.465.447,1.06,1.1-.464a2.563,2.563,0,0,0,.607.6l-.451,1.108,1.067.434.45-1.108a2.548,2.548,0,0,0,.854-.006l.465,1.1,1.061-.447-.465-1.1a2.548,2.548,0,0,0,.6-.607l1.107.451.434-1.066-1.107-.451a2.575,2.575,0,0,0-.006-.854l1.1-.465-.447-1.06-1.1.464a2.567,2.567,0,0,0-.608-.6l.451-1.108-1.066-.434-.451,1.108a2.549,2.549,0,0,0-.854.006l-.465-1.1-1.06.447.464,1.1a2.544,2.544,0,0,0-.6.607Zm3.409.674a1.271,1.271,0,0,1,.838,1.989,1.258,1.258,0,0,1-1.232.52,1.27,1.27,0,1,1,.394-2.509Z" transform="translate(-177.403 -192.402)" fill="#fff"></path>
                                            <path id="Path_3121" data-name="Path 3121" d="M192.558,214.836l-.434,1.066,1.108.451a2.549,2.549,0,0,0,.006.854l-1.1.464.447,1.061,1.1-.465a2.53,2.53,0,0,0,.607.6l-.451,1.108,1.066.433.451-1.107a2.549,2.549,0,0,0,.854-.006l.465,1.1,1.061-.447-.465-1.1a2.586,2.586,0,0,0,.6-.607l1.107.45.434-1.066-1.108-.45a2.554,2.554,0,0,0-.006-.855l1.1-.464-.447-1.061-1.1.465a2.53,2.53,0,0,0-.607-.6l.451-1.107-1.066-.434-.451,1.107a2.549,2.549,0,0,0-.854.006l-.465-1.1-1.06.447.464,1.1a2.567,2.567,0,0,0-.6.608Zm3.409.674a1.27,1.27,0,1,1-1.233.519A1.258,1.258,0,0,1,195.967,215.51Z" transform="translate(-177.403 -192.402)" fill="#fff"></path>
                                            <path id="Path_3122" data-name="Path 3122" d="M188.752,200.038l-1.114,1.848,1.92,1.157a4.768,4.768,0,0,0-.238,1.584l-2.178.539.519,2.1,2.178-.539a4.785,4.785,0,0,0,.949,1.289l-1.157,1.92,1.848,1.114,1.158-1.92a4.765,4.765,0,0,0,1.584.238l.539,2.177,2.1-.519-.54-2.177a4.777,4.777,0,0,0,1.29-.95l1.92,1.157,1.114-1.848-1.92-1.157a4.82,4.82,0,0,0,.238-1.584l2.177-.539-.519-2.1-2.177.54a4.8,4.8,0,0,0-.95-1.29l1.157-1.92-1.848-1.114-1.158,1.92a4.784,4.784,0,0,0-1.583-.238l-.54-2.177-2.094.519.539,2.177a4.789,4.789,0,0,0-1.289.95Zm6.117,2.241a2.381,2.381,0,1,1-2.435.6A2.358,2.358,0,0,1,194.869,202.279Z" transform="translate(-177.403 -192.402)" fill="#fff"></path>
                                        </g>
                                        <g id="Group_417" data-name="Group 417" transform="translate(255.986 212.656)">
                                            <g id="Group_416" data-name="Group 416">
                                                <path id="Path_3123" data-name="Path 3123" d="M272.287,243.912a5.245,5.245,0,0,0-4.818-3.47L261.4,221.993l3.272-5.72-5.459-5.228-1.86.644,2.034,5.707-1.406,1.369-1.952-.205-1.932-5.743-1.861.645-1.053,7.485,6.108,2.47,6.651,18.269.018-.007a5.251,5.251,0,1,0,8.33,2.233Zm-7.121,4.478-1.139-3.18,2.184-2.576,3.324.6,1.139,3.18-2.184,2.576Z" transform="translate(-251.18 -211.045)" fill="#8a8a8a"></path>
                                            </g>
                                            <path id="Path_3124" data-name="Path 3124" d="M266.874,240.647a5.509,5.509,0,0,1,5.167,3S269.466,240.856,266.874,240.647Z" transform="translate(-251.18 -211.045)" fill="#c9c9c9"></path>
                                            <path id="Path_3125" data-name="Path 3125" d="M266.974,240.64l-5.966-18.528,3.351-5.748-3.826,5.719,6.35,18.59Z" transform="translate(-251.18 -211.045)" fill="#c9c9c9"></path>
                                            <path id="Path_3126" data-name="Path 3126" d="M251.547,220.722l6.264,2.337,6.613,18.459.635-.22-6.774-18.907-6.28-1.916.417-6.8Z" transform="translate(-251.18 -211.045)" fill="#7d7d7d"></path>
                                        </g>
                                        <path id="Path_3127" data-name="Path 3127" d="M243.759,202.342a6.891,6.891,0,0,0-13.763,0,4.732,4.732,0,0,0-4.345,4.716v.1a4.736,4.736,0,0,0,4.736,4.736h12.981a4.736,4.736,0,0,0,4.736-4.736v-.1A4.733,4.733,0,0,0,243.759,202.342Z" transform="translate(3.188)" fill="#767676"></path>
                                        <g id="Group_418" data-name="Group 418" transform="translate(222.149 259.562)">
                                            <rect id="Rectangle_121" data-name="Rectangle 121" width="48.57" height="33.656" fill="#ffc104"></rect>
                                            <rect id="Rectangle_122" data-name="Rectangle 122" width="47.614" height="0.583" transform="translate(0.476 0.434)" fill="#c1c1c1"></rect>
                                            <rect id="Rectangle_123" data-name="Rectangle 123" width="47.618" height="30.107" transform="translate(0.476 2.952)" fill="#fff"></rect>
                                            <path id="Path_3128" data-name="Path 3128" d="M221.511,261.752l-.642.642,1.165,1.165-1.165,1.165.642.642,1.808-1.808Z" transform="translate(-217.342 -254.716)" fill="#76a9ab"></path>
                                            <path id="Path_3129" data-name="Path 3129" d="M224.044,266.185l-.642.642,1.165,1.165-1.165,1.165.642.642,1.808-1.808Z" transform="translate(-217.342 -254.716)" fill="#76a9ab"></path>
                                            <path id="Path_3130" data-name="Path 3130" d="M221.511,275.052l-.642.642,1.165,1.165-1.165,1.165.642.642,1.808-1.808Z" transform="translate(-217.342 -254.716)" fill="#76a9ab"></path>
                                            <path id="Path_3131" data-name="Path 3131" d="M225.311,270.619l-.642.642,1.165,1.165-1.165,1.165.642.642,1.808-1.808Z" transform="translate(-217.342 -254.716)" fill="#76a9ab"></path>
                                            <path id="Path_3132" data-name="Path 3132" d="M225.311,279.486l-.642.642,1.165,1.165-1.165,1.165.642.642,1.808-1.808Z" transform="translate(-217.342 -254.716)" fill="#76a9ab"></path>
                                            <rect id="Rectangle_124" data-name="Rectangle 124" width="21.82" height="1.531" transform="translate(9.554 8.078)" fill="#a0a0a0"></rect>
                                            <rect id="Rectangle_125" data-name="Rectangle 125" width="34.318" height="1.531" transform="translate(10.726 12.512)" fill="#a0a0a0"></rect>
                                            <rect id="Rectangle_126" data-name="Rectangle 126" width="33.231" height="1.531" transform="translate(7.01 21.378)" fill="#a0a0a0"></rect>
                                            <rect id="Rectangle_127" data-name="Rectangle 127" width="33.495" height="1.531" transform="translate(11.549 16.945)" fill="#a0a0a0"></rect>
                                            <rect id="Rectangle_128" data-name="Rectangle 128" width="34.318" height="1.531" transform="translate(10.726 25.812)" fill="#a0a0a0"></rect>
                                            <rect id="Rectangle_129" data-name="Rectangle 129" width="6.724" height="1.531" transform="translate(33.2 8.078)" fill="#a0a0a0"></rect>
                                        </g>
                                    </g>
                                </svg>