<svg xmlns="http://www.w3.org/2000/svg" width="100" height="100" viewBox="0 0 100 100" class="process-icon">
                                    <g id="how-it-work-icon01" transform="translate(-127.859 -231.165)">
                                        <g id="Group_394" data-name="Group 394" transform="translate(127.859 231.165)">
                                            <g id="Group_380" data-name="Group 380" transform="translate(0 6.771)">
                                                <path id="Rectangle_86" data-name="Rectangle 86" d="M3.914,0H54.6a3.914,3.914,0,0,1,3.914,3.914V58.846a0,0,0,0,1,0,0H0a0,0,0,0,1,0,0V3.914A3.914,3.914,0,0,1,3.914,0Z" fill="#ededed"></path>
                                            </g>
                                            <g id="Group_381" data-name="Group 381" transform="translate(0 35.367)">
                                                <rect id="Rectangle_87" data-name="Rectangle 87" width="18.952" height="15.388" fill="#fff"></rect>
                                            </g>
                                            <g id="Group_382" data-name="Group 382" transform="translate(19.091 19.979)">
                                                <rect id="Rectangle_88" data-name="Rectangle 88" width="20.335" height="15.388" fill="#fff"></rect>
                                            </g>
                                            <g id="Group_383" data-name="Group 383" transform="translate(19.091 50.756)">
                                                <rect id="Rectangle_89" data-name="Rectangle 89" width="20.335" height="14.861" fill="#fff"></rect>
                                            </g>
                                            <g id="Group_384" data-name="Group 384" transform="translate(39.249 35.367)">
                                                <rect id="Rectangle_90" data-name="Rectangle 90" width="19.268" height="15.388" fill="#fff"></rect>
                                            </g>
                                            <g id="Group_385" data-name="Group 385" transform="translate(0.001 5.203)">
                                                <path id="Path_3024" data-name="Path 3024" d="M179.963,235.285H134.27a6.412,6.412,0,0,0-6.411,6.413v8.122h58.517V241.7A6.413,6.413,0,0,0,179.963,235.285Z" transform="translate(-127.859 -235.285)" fill="#ffc104"></path>
                                            </g>
                                            <g id="Group_386" data-name="Group 386" transform="translate(29.258 5.203)">
                                                <path id="Path_3025" data-name="Path 3025" d="M173.876,235.285H151.029V249.82h29.259V241.7A6.413,6.413,0,0,0,173.876,235.285Z" transform="translate(-151.029 -235.285)" fill="#ffc104"></path>
                                            </g>
                                            <g id="Group_387" data-name="Group 387" transform="translate(7.596)">
                                                <path id="Path_3026" data-name="Path 3026" d="M134.978,241.977a1.1,1.1,0,0,1-1.1-1.1v-8.6a1.1,1.1,0,0,1,2.209,0v8.6A1.1,1.1,0,0,1,134.978,241.977Z" transform="translate(-133.874 -231.165)" fill="#fff"></path>
                                            </g>
                                            <g id="Group_388" data-name="Group 388" transform="translate(14.296)">
                                                <path id="Path_3027" data-name="Path 3027" d="M140.284,241.977a1.1,1.1,0,0,1-1.1-1.1v-8.6a1.1,1.1,0,1,1,2.207,0v8.6A1.1,1.1,0,0,1,140.284,241.977Z" transform="translate(-139.18 -231.165)" fill="#fff"></path>
                                            </g>
                                            <g id="Group_389" data-name="Group 389" transform="translate(20.996)">
                                                <path id="Path_3028" data-name="Path 3028" d="M145.59,241.977a1.1,1.1,0,0,1-1.1-1.1v-8.6a1.1,1.1,0,1,1,2.207,0v8.6A1.1,1.1,0,0,1,145.59,241.977Z" transform="translate(-144.486 -231.165)" fill="#fff"></path>
                                            </g>
                                            <g id="Group_390" data-name="Group 390" transform="translate(27.696)">
                                                <path id="Path_3029" data-name="Path 3029" d="M150.9,241.977a1.1,1.1,0,0,1-1.1-1.1v-8.6a1.1,1.1,0,1,1,2.207,0v8.6A1.1,1.1,0,0,1,150.9,241.977Z" transform="translate(-149.792 -231.165)" fill="#fff"></path>
                                            </g>
                                            <g id="Group_391" data-name="Group 391" transform="translate(34.395)">
                                                <path id="Path_3030" data-name="Path 3030" d="M156.2,241.977a1.1,1.1,0,0,1-1.1-1.1v-8.6a1.1,1.1,0,0,1,2.209,0v8.6A1.1,1.1,0,0,1,156.2,241.977Z" transform="translate(-155.097 -231.165)" fill="#fff"></path>
                                            </g>
                                            <g id="Group_392" data-name="Group 392" transform="translate(41.095)">
                                                <path id="Path_3031" data-name="Path 3031" d="M161.508,241.977a1.1,1.1,0,0,1-1.1-1.1v-8.6a1.1,1.1,0,0,1,2.209,0v8.6A1.1,1.1,0,0,1,161.508,241.977Z" transform="translate(-160.403 -231.165)" fill="#fff"></path>
                                            </g>
                                            <g id="Group_393" data-name="Group 393" transform="translate(47.795)">
                                                <path id="Path_3032" data-name="Path 3032" d="M166.813,241.977a1.1,1.1,0,0,1-1.1-1.1v-8.6a1.1,1.1,0,0,1,2.209,0v8.6A1.1,1.1,0,0,1,166.813,241.977Z" transform="translate(-165.709 -231.165)" fill="#fff"></path>
                                            </g>
                                        </g>
                                        <g id="Group_401" data-name="Group 401" transform="translate(138.986 244.862)">
                                            <g id="Group_395" data-name="Group 395" transform="translate(1.826 59.552)">
                                                <path id="Path_3033" data-name="Path 3033" d="M156.923,288.708l-18.807-.612,14.1,9.869Z" transform="translate(-138.117 -288.096)" fill="#878787"></path>
                                            </g>
                                            <g id="Group_396" data-name="Group 396" transform="translate(21.733 67.917)">
                                                <path id="Path_3034" data-name="Path 3034" d="M161.736,294.415l4.018,18.386L153.49,300.727Z" transform="translate(-153.49 -294.415)" fill="#878787"></path>
                                            </g>
                                            <g id="Group_397" data-name="Group 397" transform="translate(0 3.706)">
                                                <path id="Path_3035" data-name="Path 3035" d="M188.52,253.055l-48.892-8.07a2.535,2.535,0,0,0-1.745,4.658l38.01,23.493Z" transform="translate(-136.671 -244.946)" fill="#878787"></path>
                                            </g>
                                            <g id="Group_398" data-name="Group 398" transform="translate(54.443 28.791)">
                                                <path id="Path_3036" data-name="Path 3036" d="M195.853,263.43l16.816,46.623a2.535,2.535,0,0,1-4.263,2.563l-30-33.118Z" transform="translate(-178.404 -263.43)" fill="#878787"></path>
                                            </g>
                                            <g id="Group_399" data-name="Group 399" transform="translate(17.654)">
                                                <path id="Path_3037" data-name="Path 3037" d="M211.538,252.012l-2.5,12.78a8.377,8.377,0,0,1-2.923,4.9L157.244,314.91a4.67,4.67,0,0,1-6.262.16,4.952,4.952,0,0,1-.984-6.335l34.531-57.442a8.222,8.222,0,0,1,4.176-3.836l11.817-4.836a7.93,7.93,0,0,1,8.443,1.517A8.375,8.375,0,0,1,211.538,252.012Z" transform="translate(-149.269 -242.012)" fill="#002e5b"></path>
                                            </g>
                                            <g id="Group_400" data-name="Group 400" transform="translate(19.367 2.076)">
                                                <path id="Path_3038" data-name="Path 3038" d="M211.182,251.536l-2.5,12.789a8.384,8.384,0,0,1-2.923,4.9l-48.874,45.248a4.668,4.668,0,0,1-6.262.16l57.983-70.982A8.385,8.385,0,0,1,211.182,251.536Z" transform="translate(-150.626 -243.656)" fill="#002e5b"></path>
                                            </g>
                                        </g>
                                    </g>
                                </svg>