<svg width="33" height="24" viewBox="0 0 33 24" fill="none" xmlns="http://www.w3.org/2000/svg">
<path d="M4.60019 23.4C10.6002 15.9 12.3002 12.5 12.3002 8.5C12.3002 3.9 10.0002 0.5 6.20019 0.5C3.00019 0.5 0.700195 3 0.700195 5.8C0.700195 8.8 3.10019 11.3 6.1002 11.3C5.30019 14.4 3.6002 17.5 0.900195 20.6L4.60019 23.4ZM24.6002 23.4C30.6002 15.9 32.3002 12.5 32.3002 8.5C32.3002 3.9 30.0002 0.5 26.2002 0.5C23.0002 0.5 20.7002 3 20.7002 5.8C20.7002 8.8 23.1002 11.3 26.1002 11.3C25.3002 14.4 23.6002 17.5 20.9002 20.6L24.6002 23.4Z" fill="#114966"/>
</svg>
