<svg width="16" height="14" viewBox="0 0 16 14" fill="none" xmlns="http://www.w3.org/2000/svg">
<path d="M16 1.53968C15.4116 1.8004 14.7795 1.97657 14.115 2.0562C14.7929 1.65031 15.313 1.00625 15.5582 0.239584C14.924 0.615872 14.2214 0.88928 13.4738 1.03585C12.8748 0.398837 12.0222 0 11.078 0C9.26557 0 7.79565 1.46992 7.79565 3.28371C7.79565 3.54021 7.82524 3.78966 7.88021 4.03065C5.15106 3.89324 2.73337 2.5861 1.11407 0.60037C0.832203 1.08658 0.670131 1.65031 0.670131 2.25068C0.670131 3.38941 1.25007 4.39496 2.13019 4.98335C1.59183 4.96574 1.08588 4.81846 0.643354 4.57254V4.61482C0.643354 6.20523 1.77433 7.53211 3.27667 7.8337C3.00044 7.90839 2.71083 7.94785 2.41205 7.94785C2.20065 7.94785 1.99419 7.92812 1.79406 7.89007C2.21193 9.19369 3.42394 10.1436 4.86074 10.1689C3.73681 11.0498 2.32115 11.5747 0.783581 11.5747C0.518629 11.5747 0.257201 11.5592 0 11.5289C1.45301 12.4612 3.17801 13.0038 5.03127 13.0038C11.0702 13.0038 14.3715 8.00211 14.3715 3.66423C14.3715 3.5233 14.368 3.38096 14.3617 3.24002C15.0029 2.77636 15.5596 2.19924 15.9986 1.5418L16 1.53968Z" fill="#1D9BF0"/>
</svg>
